<svg xmlns="http://www.w3.org/2000/svg" width="24.32" height="18.24" viewBox="0 0 24.32 18.24">
  <g id="Grupo_205" data-name="Grupo 205" transform="translate(1564.252 241.689)">
    <g id="Grupo_192" data-name="Grupo 192" transform="translate(-1145 -675)">
      <path id="Icon_awesome-chart-bar" data-name="Icon awesome-chart-bar" d="M15.808,16.66h1.824a.654.654,0,0,0,.608-.608V9.668a.654.654,0,0,0-.608-.608H15.808a.654.654,0,0,0-.608.608v6.384A.654.654,0,0,0,15.808,16.66Zm4.56,0h1.824a.654.654,0,0,0,.608-.608V5.108a.654.654,0,0,0-.608-.608H20.368a.654.654,0,0,0-.608.608V16.052A.654.654,0,0,0,20.368,16.66Zm-13.68,0H8.512a.654.654,0,0,0,.608-.608V12.708a.654.654,0,0,0-.608-.608H6.688a.654.654,0,0,0-.608.608v3.344a.654.654,0,0,0,.608.608Zm4.56,0h1.824a.654.654,0,0,0,.608-.608V6.628a.654.654,0,0,0-.608-.608H11.248a.654.654,0,0,0-.608.608v9.424A.654.654,0,0,0,11.248,16.66Z" transform="translate(-419.252 428.811)" fill="#fff"/>
      <path id="Icon_awesome-chart-bar-2" data-name="Icon awesome-chart-bar" d="M23.56,19.7H3.04V5.26a.76.76,0,0,0-.76-.76H.76A.76.76,0,0,0,0,5.26V21.22a1.52,1.52,0,0,0,1.52,1.52H23.56a.76.76,0,0,0,.76-.76V20.46A.76.76,0,0,0,23.56,19.7Z" transform="translate(-419.252 428.811)" fill="#fff" opacity="0.502"/>
    </g>
  </g>
</svg>
