<svg xmlns="http://www.w3.org/2000/svg" width="24.288" height="18.216" viewBox="0 0 24.288 18.216">
  <g id="Grupo_206" data-name="Grupo 206" transform="translate(1525.219 243.353)">
    <g id="Grupo_193" data-name="Grupo 193" transform="translate(-1106 -683)">
      <path id="Icon_awesome-chart-line" data-name="Icon awesome-chart-line" d="M22.011,6.018h-5.6a1.138,1.138,0,0,0-.805,1.944L17.143,9.5l-3.481,3.481L10.182,9.5a1.517,1.517,0,0,0-2.147,0L4.777,12.757a.759.759,0,0,0,0,1.074L5.85,14.9a.759.759,0,0,0,1.074,0l2.185-2.185L12.589,16.2a1.517,1.517,0,0,0,2.147,0l4.554-4.554,1.537,1.537a1.138,1.138,0,0,0,1.944-.805v-5.6A.758.758,0,0,0,22.011,6.018Z" transform="translate(-419.219 435.147)" fill="#fff"/>
      <path id="Icon_awesome-chart-line-2" data-name="Icon awesome-chart-line" d="M23.529,19.68H3.036V5.259A.759.759,0,0,0,2.277,4.5H.759A.759.759,0,0,0,0,5.259V21.2a1.518,1.518,0,0,0,1.518,1.518H23.529a.759.759,0,0,0,.759-.759V20.439A.759.759,0,0,0,23.529,19.68Z" transform="translate(-419.219 435.147)" fill="#fff" opacity="0.506"/>
    </g>
  </g>
</svg>
