<svg id="Grupo_194" data-name="Grupo 194" xmlns="http://www.w3.org/2000/svg" width="233.938" height="83.853" viewBox="0 0 233.938 83.853">
  <g id="Grupo_10" data-name="Grupo 10" transform="translate(0 3.062)">
    <g id="Grupo_1" data-name="Grupo 1" transform="translate(56.116 26.344)">
      <path id="Trazado_1" data-name="Trazado 1" d="M236.232,109.541l-30.158-8.117a2.894,2.894,0,0,1,1.513-5.586,2.422,2.422,0,0,1,.413.138l28.562,12.6a.51.51,0,0,1-.33.963Z" transform="translate(-203.938 -95.738)" fill="#033c52"/>
    </g>
    <g id="Grupo_2" data-name="Grupo 2" transform="matrix(0.999, -0.035, 0.035, 0.999, 56.512, 42.765)">
      <path id="Trazado_2" data-name="Trazado 2" d="M40.608,12.08,2.146,5.751A2.855,2.855,0,0,1,.024,2.477,2.591,2.591,0,0,1,2.862.028c.1.028.191.028.262.055L40.751,11.2a.458.458,0,0,1,.286.55A.4.4,0,0,1,40.608,12.08Z" fill="#033c52"/>
    </g>
    <g id="Grupo_3" data-name="Grupo 3" transform="translate(56.085 59.023)">
      <path id="Trazado_3" data-name="Trazado 3" d="M235.681,217.059l-28.617,3.247a2.908,2.908,0,1,1-.66-5.778,2.829,2.829,0,0,1,.468-.028l28.782,1.4a.583.583,0,0,1,.028,1.156Z" transform="translate(-203.824 -214.5)" fill="#033c52"/>
    </g>
    <path id="Sustracción_1" data-name="Sustracción 1" d="M1902.815,481.126a6.653,6.653,0,0,1-.743-.028l-.661-.055-10.181-1.073L1881.05,478.9l-5.091-.523-2.531-.274-.33-.028-.166-.027-.22-.028c-.239-.048-.519-.12-.853-.22a5.055,5.055,0,0,1-1.541-.88,4.817,4.817,0,0,1-1.706-3.027,4.63,4.63,0,0,1-.055-.881v-.384l.028-.33.082-1.266.358-5.09.743-10.236,1.541-20.39.385-5.09a4.756,4.756,0,0,1,.441-1.706,4.981,4.981,0,0,1,1.018-1.459,4.877,4.877,0,0,1,1.458-.99,7.617,7.617,0,0,1,.853-.275l.217-.041.223-.042.33-.027,10.126-1.4,10.154-1.43,5.063-.715.633-.083.2-.026c.135-.018.275-.037.465-.057a7.8,7.8,0,0,1,.867-.045c.2,0,.4.006.619.018a8.736,8.736,0,0,1,2.889.688l4.677,2.119.064.03.017.008c1.489.691,3.029,1.406,4.542,2.136,2.535,1.222,5.864,2.852,9.135,4.623a.514.514,0,0,1,.275.578.507.507,0,0,1-.5.381.556.556,0,0,1-.16-.024c-3.432-1.163-6.78-2.475-9.6-3.6-1.006-.381-2.015-.8-2.99-1.208-.569-.237-1.157-.482-1.743-.718-.033-.012-.328-.121-.743-.3a3.043,3.043,0,0,0-4.238,2.724l-1.237,45.071a3.014,3.014,0,0,0,.854,2.2,3.08,3.08,0,0,0,2.2.928,3.158,3.158,0,0,0,.692-.078l2.751-.633c5.87-1.34,12.838-2.888,20-4.21.027,0,.054,0,.081,0a.572.572,0,0,1,.552.334.588.588,0,0,1-.024.455.5.5,0,0,1-.279.261c-7.024,2.125-13.915,3.946-19.729,5.448l-4.953,1.266-1.238.3-.633.166a5.545,5.545,0,0,1-.716.138A9.067,9.067,0,0,1,1902.815,481.126Zm-9.108-11.695c-1.153,0-2.091,1.432-2.091,3.191s.938,3.192,2.091,3.192,2.092-1.432,2.092-3.192S1894.86,469.431,1893.707,469.431Zm-18.3-.825c-1,0-1.816,1.234-1.816,2.751s.815,2.752,1.816,2.752,1.816-1.235,1.816-2.752S1876.411,468.606,1875.409,468.606Zm26.665-43.9a1.023,1.023,0,0,0-.139.01l-5.063.742-7.87,1.156a.967.967,0,0,0-.852.908l-1.954,31.864a.94.94,0,0,0,.246.72.973.973,0,0,0,.717.326l13.951.221a1,1,0,0,0,1.018-.963l.936-33.955a.972.972,0,0,0-.269-.721A1,1,0,0,0,1902.074,424.708Zm-17.446,2.559a1.071,1.071,0,0,0-.138.009l-7.87,1.156-.3.055-.193.028a1.361,1.361,0,0,1-.177.068,1.356,1.356,0,0,0-.181.07,2.017,2.017,0,0,0-.633.44,1.973,1.973,0,0,0-.633,1.375l-.385,5.091-1.486,20.416-.247,3.164a.99.99,0,0,0,.25.76.952.952,0,0,0,.713.314l9.355.165a.99.99,0,0,0,.991-.935l1.926-31.121a.949.949,0,0,0-.247-.732A1.009,1.009,0,0,0,1884.628,427.267Z" transform="translate(-1852.24 -404.932)" fill="#033c52"/>
    <g id="Grupo_7" data-name="Grupo 7" transform="translate(11.997 11.997)">
      <path id="Trazado_5" data-name="Trazado 5" d="M44.838,61.183A1.233,1.233,0,0,1,43.6,59.945,16.364,16.364,0,0,1,59.945,43.6a1.238,1.238,0,1,1,0,2.476A13.881,13.881,0,0,0,46.076,59.945,1.233,1.233,0,0,1,44.838,61.183Z" transform="translate(-43.6 -43.6)" fill="#033c52"/>
    </g>
    <g id="Grupo_8" data-name="Grupo 8" transform="translate(5.751 5.751)">
      <path id="Trazado_6" data-name="Trazado 6" d="M22.138,44.729A1.233,1.233,0,0,1,20.9,43.491,22.606,22.606,0,0,1,43.491,20.9a1.238,1.238,0,1,1,0,2.476A20.14,20.14,0,0,0,23.376,43.491,1.233,1.233,0,0,1,22.138,44.729Z" transform="translate(-20.9 -20.9)" fill="#033c52"/>
    </g>
    <g id="Grupo_9" data-name="Grupo 9">
      <path id="Trazado_7" data-name="Trazado 7" d="M1.238,29.58A1.233,1.233,0,0,1,0,28.342,28.372,28.372,0,0,1,28.342,0a1.238,1.238,0,1,1,0,2.476A25.906,25.906,0,0,0,2.476,28.342,1.233,1.233,0,0,1,1.238,29.58Z" fill="#033c52"/>
    </g>
  </g>
  <path id="Trazado_1654" data-name="Trazado 1654" d="M11.16-9.74a5.062,5.062,0,0,0-.44-1.14,3.154,3.154,0,0,0-.72-.9,3.2,3.2,0,0,0-1.03-.59,4.081,4.081,0,0,0-1.37-.21,4,4,0,0,0-1.97.46,3.863,3.863,0,0,0-1.35,1.23,5.549,5.549,0,0,0-.77,1.75,8.059,8.059,0,0,0-.25,2,8.059,8.059,0,0,0,.25,2,5.549,5.549,0,0,0,.77,1.75A3.863,3.863,0,0,0,5.63-2.16,4,4,0,0,0,7.6-1.7a3.553,3.553,0,0,0,1.48-.29,3.3,3.3,0,0,0,1.1-.8,3.764,3.764,0,0,0,.72-1.19,5.7,5.7,0,0,0,.34-1.46h2.44a6.768,6.768,0,0,1-.55,2.34,5.738,5.738,0,0,1-1.27,1.83A5.611,5.611,0,0,1,9.98-.08,6.514,6.514,0,0,1,7.6.34,6.734,6.734,0,0,1,4.73-.25,6.313,6.313,0,0,1,2.58-1.86,7.2,7.2,0,0,1,1.23-4.24a8.817,8.817,0,0,1-.47-2.9,8.755,8.755,0,0,1,.47-2.88A7.2,7.2,0,0,1,2.58-12.4a6.426,6.426,0,0,1,2.15-1.62,6.639,6.639,0,0,1,2.87-.6,7.562,7.562,0,0,1,2.26.33,5.843,5.843,0,0,1,1.87.96,4.986,4.986,0,0,1,1.31,1.53,5.323,5.323,0,0,1,.62,2.06ZM24.3-2.3a1.21,1.21,0,0,0,.11.6.464.464,0,0,0,.43.18h.24a1.494,1.494,0,0,0,.32-.04V.02q-.12.04-.31.09T24.7.2q-.2.04-.4.06t-.34.02A2.2,2.2,0,0,1,22.8,0a1.394,1.394,0,0,1-.6-.98,4.032,4.032,0,0,1-1.67.96,6.576,6.576,0,0,1-1.91.3A4.684,4.684,0,0,1,17.28.09a3.517,3.517,0,0,1-1.13-.56,2.684,2.684,0,0,1-.78-.94,2.9,2.9,0,0,1-.29-1.33,3.072,3.072,0,0,1,.35-1.56,2.593,2.593,0,0,1,.92-.94,4.155,4.155,0,0,1,1.28-.49q.71-.15,1.43-.23a11.7,11.7,0,0,1,1.18-.17,5.537,5.537,0,0,0,.99-.17,1.516,1.516,0,0,0,.68-.37,1.019,1.019,0,0,0,.25-.75,1.168,1.168,0,0,0-.21-.72,1.409,1.409,0,0,0-.52-.43,2.246,2.246,0,0,0-.69-.2,5.53,5.53,0,0,0-.72-.05,2.864,2.864,0,0,0-1.58.4,1.56,1.56,0,0,0-.7,1.24H15.46a3.432,3.432,0,0,1,.48-1.66A3.316,3.316,0,0,1,17.01-9.9a4.378,4.378,0,0,1,1.47-.56,8.752,8.752,0,0,1,1.68-.16,7.078,7.078,0,0,1,1.5.16,4.261,4.261,0,0,1,1.33.52,2.881,2.881,0,0,1,.95.93,2.552,2.552,0,0,1,.36,1.39ZM22.02-5.18a2.768,2.768,0,0,1-1.28.41q-.76.07-1.52.21a4.874,4.874,0,0,0-.7.17,2.108,2.108,0,0,0-.6.3,1.317,1.317,0,0,0-.41.5,1.71,1.71,0,0,0-.15.75.957.957,0,0,0,.22.64,1.6,1.6,0,0,0,.53.41,2.454,2.454,0,0,0,.68.21,4.221,4.221,0,0,0,.67.06,3.713,3.713,0,0,0,.82-.1,2.727,2.727,0,0,0,.83-.34,2.185,2.185,0,0,0,.65-.61,1.543,1.543,0,0,0,.26-.91Zm4.74-5.16H28.9v2h.04a2.308,2.308,0,0,1,.39-.82,3.8,3.8,0,0,1,.7-.73,3.537,3.537,0,0,1,.91-.53,2.724,2.724,0,0,1,1.02-.2,4.946,4.946,0,0,1,.55.02l.31.04v2.2q-.24-.04-.49-.07a4.111,4.111,0,0,0-.49-.03,2.621,2.621,0,0,0-1.09.23,2.5,2.5,0,0,0-.89.68,3.332,3.332,0,0,0-.6,1.11,4.8,4.8,0,0,0-.22,1.52V0H26.76Zm7.1-3.94h2.28v2.16H33.86Zm0,3.94h2.28V0H33.86Zm4.82-3.94h2.28V-9H41a3.136,3.136,0,0,1,.58-.68,3.629,3.629,0,0,1,.75-.51,3.924,3.924,0,0,1,.86-.32,3.738,3.738,0,0,1,.89-.11,4.938,4.938,0,0,1,2.13.43,4.2,4.2,0,0,1,1.51,1.18,5.126,5.126,0,0,1,.9,1.75,7.412,7.412,0,0,1,.3,2.14,7.57,7.57,0,0,1-.27,2.02,5.255,5.255,0,0,1-.82,1.73,4.1,4.1,0,0,1-1.39,1.2,4.134,4.134,0,0,1-1.98.45A8.012,8.012,0,0,1,43.41.21,3.963,3.963,0,0,1,42.4-.06a3.462,3.462,0,0,1-.87-.52,2.529,2.529,0,0,1-.65-.84h-.04V0H38.68Zm7.96,9.12a5.146,5.146,0,0,0-.18-1.36,3.7,3.7,0,0,0-.54-1.17,2.788,2.788,0,0,0-.9-.82,2.446,2.446,0,0,0-1.24-.31,2.514,2.514,0,0,0-2.17,1,4.413,4.413,0,0,0-.73,2.66,5.3,5.3,0,0,0,.19,1.45,3.263,3.263,0,0,0,.57,1.15,2.846,2.846,0,0,0,.91.76,2.6,2.6,0,0,0,1.23.28,2.547,2.547,0,0,0,1.32-.32,2.791,2.791,0,0,0,.89-.83,3.366,3.366,0,0,0,.5-1.16A5.9,5.9,0,0,0,46.64-5.16Zm4.26-9.12h2.28V-9h.04a3.136,3.136,0,0,1,.58-.68,3.629,3.629,0,0,1,.75-.51,3.924,3.924,0,0,1,.86-.32,3.738,3.738,0,0,1,.89-.11,4.938,4.938,0,0,1,2.13.43,4.2,4.2,0,0,1,1.51,1.18,5.126,5.126,0,0,1,.9,1.75,7.412,7.412,0,0,1,.3,2.14,7.57,7.57,0,0,1-.27,2.02,5.255,5.255,0,0,1-.82,1.73,4.1,4.1,0,0,1-1.39,1.2,4.134,4.134,0,0,1-1.98.45A8.012,8.012,0,0,1,55.63.21a3.963,3.963,0,0,1-1.01-.27,3.462,3.462,0,0,1-.87-.52,2.529,2.529,0,0,1-.65-.84h-.04V0H50.9Zm7.96,9.12a5.146,5.146,0,0,0-.18-1.36,3.7,3.7,0,0,0-.54-1.17,2.788,2.788,0,0,0-.9-.82A2.446,2.446,0,0,0,56-8.82a2.514,2.514,0,0,0-2.17,1,4.413,4.413,0,0,0-.73,2.66,5.3,5.3,0,0,0,.19,1.45,3.263,3.263,0,0,0,.57,1.15,2.846,2.846,0,0,0,.91.76A2.6,2.6,0,0,0,56-1.52a2.547,2.547,0,0,0,1.32-.32,2.791,2.791,0,0,0,.89-.83,3.366,3.366,0,0,0,.5-1.16A5.9,5.9,0,0,0,58.86-5.16Zm11.3-.92a3.676,3.676,0,0,0-.23-1.04,2.771,2.771,0,0,0-.52-.87,2.575,2.575,0,0,0-.8-.6,2.357,2.357,0,0,0-1.05-.23,2.74,2.74,0,0,0-1.09.21,2.493,2.493,0,0,0-.84.58,2.869,2.869,0,0,0-.56.87,3.035,3.035,0,0,0-.23,1.08Zm-5.32,1.5a3.971,3.971,0,0,0,.17,1.16,2.858,2.858,0,0,0,.51.98,2.458,2.458,0,0,0,.86.67,2.838,2.838,0,0,0,1.24.25,2.739,2.739,0,0,0,1.61-.43,2.542,2.542,0,0,0,.91-1.29H72.3a4.3,4.3,0,0,1-.62,1.5A4.314,4.314,0,0,1,70.62-.63a4.575,4.575,0,0,1-1.39.68,5.6,5.6,0,0,1-1.61.23,5.475,5.475,0,0,1-2.16-.4,4.465,4.465,0,0,1-1.59-1.12,4.753,4.753,0,0,1-.98-1.72,6.987,6.987,0,0,1-.33-2.2,6.224,6.224,0,0,1,.35-2.09,5.35,5.35,0,0,1,1-1.74,4.782,4.782,0,0,1,1.57-1.19,4.762,4.762,0,0,1,2.08-.44,4.634,4.634,0,0,1,2.19.51,4.806,4.806,0,0,1,1.61,1.35,5.466,5.466,0,0,1,.93,1.93,5.916,5.916,0,0,1,.15,2.25Zm18,2.28a1.21,1.21,0,0,0,.11.6.464.464,0,0,0,.43.18h.24a1.5,1.5,0,0,0,.32-.04V.02q-.12.04-.31.09T83.24.2q-.2.04-.4.06T82.5.28A2.2,2.2,0,0,1,81.34,0a1.394,1.394,0,0,1-.6-.98,4.032,4.032,0,0,1-1.67.96,6.576,6.576,0,0,1-1.91.3A4.684,4.684,0,0,1,75.82.09a3.517,3.517,0,0,1-1.13-.56,2.684,2.684,0,0,1-.78-.94,2.9,2.9,0,0,1-.29-1.33,3.072,3.072,0,0,1,.35-1.56,2.593,2.593,0,0,1,.92-.94,4.155,4.155,0,0,1,1.28-.49q.71-.15,1.43-.23a11.7,11.7,0,0,1,1.18-.17,5.537,5.537,0,0,0,.99-.17,1.516,1.516,0,0,0,.68-.37,1.019,1.019,0,0,0,.25-.75,1.168,1.168,0,0,0-.21-.72,1.409,1.409,0,0,0-.52-.43,2.246,2.246,0,0,0-.69-.2,5.53,5.53,0,0,0-.72-.05,2.864,2.864,0,0,0-1.58.4,1.56,1.56,0,0,0-.7,1.24H74a3.432,3.432,0,0,1,.48-1.66A3.316,3.316,0,0,1,75.55-9.9a4.378,4.378,0,0,1,1.47-.56,8.752,8.752,0,0,1,1.68-.16,7.078,7.078,0,0,1,1.5.16,4.261,4.261,0,0,1,1.33.52,2.881,2.881,0,0,1,.95.93,2.552,2.552,0,0,1,.36,1.39ZM80.56-5.18a2.768,2.768,0,0,1-1.28.41q-.76.07-1.52.21a4.873,4.873,0,0,0-.7.17,2.108,2.108,0,0,0-.6.3,1.317,1.317,0,0,0-.41.5,1.71,1.71,0,0,0-.15.75.957.957,0,0,0,.22.64,1.6,1.6,0,0,0,.53.41,2.454,2.454,0,0,0,.68.21,4.221,4.221,0,0,0,.67.06,3.713,3.713,0,0,0,.82-.1,2.727,2.727,0,0,0,.83-.34,2.185,2.185,0,0,0,.65-.61,1.543,1.543,0,0,0,.26-.91Zm4.74-5.16h2.16v1.52l.04.04a3.823,3.823,0,0,1,1.36-1.35,3.624,3.624,0,0,1,1.86-.49,3.865,3.865,0,0,1,2.68.88,3.368,3.368,0,0,1,.98,2.64V0H92.1V-6.5a2.809,2.809,0,0,0-.52-1.77,1.889,1.889,0,0,0-1.5-.55,2.477,2.477,0,0,0-1.04.21,2.255,2.255,0,0,0-.78.58,2.727,2.727,0,0,0-.5.87,3.106,3.106,0,0,0-.18,1.06V0H85.3ZM.16,10.72H11.72v2.16H7.18V25H4.68V12.88H.16Zm11.06,3.94h2.14v2h.04a2.308,2.308,0,0,1,.39-.82,3.8,3.8,0,0,1,.7-.73,3.537,3.537,0,0,1,.91-.53,2.724,2.724,0,0,1,1.02-.2,4.946,4.946,0,0,1,.55.02l.31.04v2.2q-.24-.04-.49-.07a4.111,4.111,0,0,0-.49-.03,2.621,2.621,0,0,0-1.09.23,2.5,2.5,0,0,0-.89.68,3.332,3.332,0,0,0-.6,1.11,4.8,4.8,0,0,0-.22,1.52V25H11.22Zm15.7,8.04a1.21,1.21,0,0,0,.11.6.464.464,0,0,0,.43.18h.24a1.494,1.494,0,0,0,.32-.04v1.58q-.12.04-.31.09t-.39.09q-.2.04-.4.06t-.34.02A2.2,2.2,0,0,1,25.42,25a1.394,1.394,0,0,1-.6-.98,4.032,4.032,0,0,1-1.67.96,6.576,6.576,0,0,1-1.91.3,4.684,4.684,0,0,1-1.34-.19,3.517,3.517,0,0,1-1.13-.56,2.684,2.684,0,0,1-.78-.94,2.9,2.9,0,0,1-.29-1.33,3.072,3.072,0,0,1,.35-1.56,2.593,2.593,0,0,1,.92-.94,4.155,4.155,0,0,1,1.28-.49q.71-.15,1.43-.23a11.7,11.7,0,0,1,1.18-.17,5.537,5.537,0,0,0,.99-.17,1.516,1.516,0,0,0,.68-.37,1.019,1.019,0,0,0,.25-.75,1.168,1.168,0,0,0-.21-.72,1.409,1.409,0,0,0-.52-.43,2.246,2.246,0,0,0-.69-.2,5.53,5.53,0,0,0-.72-.05,2.864,2.864,0,0,0-1.58.4,1.56,1.56,0,0,0-.7,1.24H18.08a3.432,3.432,0,0,1,.48-1.66,3.316,3.316,0,0,1,1.07-1.06,4.378,4.378,0,0,1,1.47-.56,8.752,8.752,0,0,1,1.68-.16,7.078,7.078,0,0,1,1.5.16,4.261,4.261,0,0,1,1.33.52,2.881,2.881,0,0,1,.95.93,2.552,2.552,0,0,1,.36,1.39Zm-2.28-2.88a2.768,2.768,0,0,1-1.28.41q-.76.07-1.52.21a4.873,4.873,0,0,0-.7.17,2.108,2.108,0,0,0-.6.3,1.317,1.317,0,0,0-.41.5,1.71,1.71,0,0,0-.15.75.957.957,0,0,0,.22.64,1.6,1.6,0,0,0,.53.41,2.454,2.454,0,0,0,.68.21,4.221,4.221,0,0,0,.67.06,3.713,3.713,0,0,0,.82-.1,2.727,2.727,0,0,0,.83-.34,2.185,2.185,0,0,0,.65-.61,1.543,1.543,0,0,0,.26-.91Zm4.74-5.16h2.16v1.52l.04.04a3.823,3.823,0,0,1,1.36-1.35,3.624,3.624,0,0,1,1.86-.49,3.865,3.865,0,0,1,2.68.88,3.368,3.368,0,0,1,.98,2.64V25H36.18V18.5a2.809,2.809,0,0,0-.52-1.77,1.889,1.889,0,0,0-1.5-.55,2.477,2.477,0,0,0-1.04.21,2.255,2.255,0,0,0-.78.58,2.726,2.726,0,0,0-.5.87,3.105,3.105,0,0,0-.18,1.06V25H29.38Zm13.2,7.02a1.718,1.718,0,0,0,.76,1.4,2.991,2.991,0,0,0,1.58.4,6.1,6.1,0,0,0,.73-.05,3.177,3.177,0,0,0,.77-.19,1.448,1.448,0,0,0,.59-.41.984.984,0,0,0,.21-.71,1.007,1.007,0,0,0-.32-.72,2.217,2.217,0,0,0-.77-.45,7.461,7.461,0,0,0-1.07-.29q-.6-.12-1.22-.26a11.451,11.451,0,0,1-1.23-.34,3.969,3.969,0,0,1-1.06-.54,2.5,2.5,0,0,1-.75-.87,2.78,2.78,0,0,1-.28-1.31,2.352,2.352,0,0,1,.41-1.41,3.143,3.143,0,0,1,1.04-.92,4.528,4.528,0,0,1,1.4-.49,8.224,8.224,0,0,1,1.47-.14,6.726,6.726,0,0,1,1.53.17,4.158,4.158,0,0,1,1.32.55,3.23,3.23,0,0,1,.98.99,3.427,3.427,0,0,1,.49,1.47H46.78a1.419,1.419,0,0,0-.75-1.1,3.113,3.113,0,0,0-1.35-.28,4.831,4.831,0,0,0-.57.04,2.636,2.636,0,0,0-.62.15,1.3,1.3,0,0,0-.49.32.765.765,0,0,0-.2.55.87.87,0,0,0,.29.68,2.3,2.3,0,0,0,.76.43,7.461,7.461,0,0,0,1.07.29q.6.12,1.24.26.62.14,1.22.34a3.934,3.934,0,0,1,1.07.54,2.624,2.624,0,0,1,.76.86,2.6,2.6,0,0,1,.29,1.28,2.781,2.781,0,0,1-.42,1.56,3.321,3.321,0,0,1-1.09,1.04,4.958,4.958,0,0,1-1.49.58,7.539,7.539,0,0,1-1.62.18,7.05,7.05,0,0,1-1.81-.22,4.219,4.219,0,0,1-1.44-.67,3.237,3.237,0,0,1-.96-1.12,3.563,3.563,0,0,1-.37-1.59ZM51.3,10.72h2.28v2.16H51.3Zm0,3.94h2.28V25H51.3Zm3.72,0h1.72v-3.1h2.28v3.1h2.06v1.7H59.02v5.52a5.506,5.506,0,0,0,.03.62,1.07,1.07,0,0,0,.14.44.669.669,0,0,0,.33.27,1.624,1.624,0,0,0,.6.09q.24,0,.48-.01a2.384,2.384,0,0,0,.48-.07v1.76l-.74.08a6.7,6.7,0,0,1-.74.04,5.047,5.047,0,0,1-1.45-.17,1.936,1.936,0,0,1-.86-.5,1.725,1.725,0,0,1-.42-.83,6.246,6.246,0,0,1-.13-1.14v-6.1H55.02ZM3.16,45.24a3.2,3.2,0,0,0,.28,1.4,2.529,2.529,0,0,0,.78.95,3.326,3.326,0,0,0,1.15.54,5.56,5.56,0,0,0,1.41.17,4.528,4.528,0,0,0,1.4-.19,2.832,2.832,0,0,0,.94-.49,1.77,1.77,0,0,0,.52-.69,2.065,2.065,0,0,0,.16-.79,1.707,1.707,0,0,0-.37-1.21,2.114,2.114,0,0,0-.81-.55,16.938,16.938,0,0,0-1.77-.53q-1.01-.25-2.49-.65a5.339,5.339,0,0,1-1.53-.63,3.65,3.65,0,0,1-.97-.87,3.055,3.055,0,0,1-.51-1.02,4.091,4.091,0,0,1-.15-1.1,3.716,3.716,0,0,1,.45-1.87A4,4,0,0,1,2.84,36.4a5.233,5.233,0,0,1,1.68-.77,7.362,7.362,0,0,1,1.9-.25,7.471,7.471,0,0,1,2.11.29,5.2,5.2,0,0,1,1.74.87,4.128,4.128,0,0,1,1.63,3.4H9.4a2.41,2.41,0,0,0-.94-1.95,3.732,3.732,0,0,0-2.14-.57,4.681,4.681,0,0,0-.9.09,2.859,2.859,0,0,0-.84.3,1.843,1.843,0,0,0-.63.57,1.743,1.743,0,0,0,.22,2.09,3.044,3.044,0,0,0,1.23.65q.08.02.63.17t1.23.33l1.33.35q.65.17.93.25a4.167,4.167,0,0,1,1.22.6,3.847,3.847,0,0,1,.87.87,3.592,3.592,0,0,1,.52,1.05,3.838,3.838,0,0,1,.17,1.12,4.04,4.04,0,0,1-.49,2.05,4.159,4.159,0,0,1-1.29,1.39,5.608,5.608,0,0,1-1.82.79,8.706,8.706,0,0,1-2.08.25,8.559,8.559,0,0,1-2.3-.3,5.384,5.384,0,0,1-1.88-.92,4.5,4.5,0,0,1-1.28-1.59,5.293,5.293,0,0,1-.5-2.29ZM18.9,50.28a5.631,5.631,0,0,1-2.21-.41,4.713,4.713,0,0,1-1.64-1.13,4.833,4.833,0,0,1-1.02-1.72,7.026,7.026,0,0,1,0-4.38,4.833,4.833,0,0,1,1.02-1.72,4.713,4.713,0,0,1,1.64-1.13,5.631,5.631,0,0,1,2.21-.41,5.631,5.631,0,0,1,2.21.41,4.713,4.713,0,0,1,1.64,1.13,4.833,4.833,0,0,1,1.02,1.72,7.026,7.026,0,0,1,0,4.38,4.833,4.833,0,0,1-1.02,1.72,4.713,4.713,0,0,1-1.64,1.13A5.631,5.631,0,0,1,18.9,50.28Zm0-1.8a2.616,2.616,0,0,0,1.32-.32,2.782,2.782,0,0,0,.92-.84,3.666,3.666,0,0,0,.53-1.17,5.249,5.249,0,0,0,0-2.65,3.538,3.538,0,0,0-.53-1.17,2.825,2.825,0,0,0-.92-.83,2.883,2.883,0,0,0-2.64,0,2.825,2.825,0,0,0-.92.83,3.538,3.538,0,0,0-.53,1.17,5.249,5.249,0,0,0,0,2.65,3.666,3.666,0,0,0,.53,1.17,2.782,2.782,0,0,0,.92.84A2.616,2.616,0,0,0,18.9,48.48Zm7.18-12.76h2.28V50H26.08ZM39.92,50H37.68V48.56h-.04a3.132,3.132,0,0,1-1.25,1.25,3.394,3.394,0,0,1-1.69.47,3.8,3.8,0,0,1-2.95-1.01,4.435,4.435,0,0,1-.91-3.05V39.66h2.28V46a2.8,2.8,0,0,0,.52,1.92,1.894,1.894,0,0,0,1.46.56,2.88,2.88,0,0,0,1.2-.22,2.123,2.123,0,0,0,.78-.59,2.263,2.263,0,0,0,.43-.89,4.608,4.608,0,0,0,.13-1.12v-6h2.28Zm1.36-10.34H43v-3.1h2.28v3.1h2.06v1.7H45.28v5.52a5.506,5.506,0,0,0,.03.62,1.07,1.07,0,0,0,.14.44.669.669,0,0,0,.33.27,1.624,1.624,0,0,0,.6.09q.24,0,.48-.01a2.384,2.384,0,0,0,.48-.07v1.76l-.74.08a6.7,6.7,0,0,1-.74.04,5.047,5.047,0,0,1-1.45-.17,1.936,1.936,0,0,1-.86-.5,1.725,1.725,0,0,1-.42-.83A6.246,6.246,0,0,1,43,47.46v-6.1H41.28Zm7.76-3.94h2.28v2.16H49.04Zm0,3.94h2.28V50H49.04Zm9.5,10.62a5.631,5.631,0,0,1-2.21-.41,4.713,4.713,0,0,1-1.64-1.13,4.833,4.833,0,0,1-1.02-1.72,7.026,7.026,0,0,1,0-4.38,4.833,4.833,0,0,1,1.02-1.72,4.713,4.713,0,0,1,1.64-1.13,6.161,6.161,0,0,1,4.42,0,4.713,4.713,0,0,1,1.64,1.13,4.833,4.833,0,0,1,1.02,1.72,7.026,7.026,0,0,1,0,4.38,4.833,4.833,0,0,1-1.02,1.72,4.713,4.713,0,0,1-1.64,1.13A5.631,5.631,0,0,1,58.54,50.28Zm0-1.8a2.616,2.616,0,0,0,1.32-.32,2.782,2.782,0,0,0,.92-.84,3.666,3.666,0,0,0,.53-1.17,5.248,5.248,0,0,0,0-2.65,3.538,3.538,0,0,0-.53-1.17,2.825,2.825,0,0,0-.92-.83,2.883,2.883,0,0,0-2.64,0,2.825,2.825,0,0,0-.92.83,3.538,3.538,0,0,0-.53,1.17,5.249,5.249,0,0,0,0,2.65,3.666,3.666,0,0,0,.53,1.17,2.782,2.782,0,0,0,.92.84A2.616,2.616,0,0,0,58.54,48.48Zm7.12-8.82h2.16v1.52l.04.04a3.823,3.823,0,0,1,1.36-1.35,3.624,3.624,0,0,1,1.86-.49,3.865,3.865,0,0,1,2.68.88,3.368,3.368,0,0,1,.98,2.64V50H72.46V43.5a2.809,2.809,0,0,0-.52-1.77,1.889,1.889,0,0,0-1.5-.55,2.477,2.477,0,0,0-1.04.21,2.255,2.255,0,0,0-.78.58,2.727,2.727,0,0,0-.5.87,3.106,3.106,0,0,0-.18,1.06V50H65.66Zm13.2,7.02a1.718,1.718,0,0,0,.76,1.4,2.991,2.991,0,0,0,1.58.4,6.1,6.1,0,0,0,.73-.05,3.177,3.177,0,0,0,.77-.19,1.448,1.448,0,0,0,.59-.41.984.984,0,0,0,.21-.71,1.007,1.007,0,0,0-.32-.72,2.217,2.217,0,0,0-.77-.45,7.46,7.46,0,0,0-1.07-.29q-.6-.12-1.22-.26a11.452,11.452,0,0,1-1.23-.34,3.969,3.969,0,0,1-1.06-.54,2.5,2.5,0,0,1-.75-.87,2.78,2.78,0,0,1-.28-1.31,2.352,2.352,0,0,1,.41-1.41,3.143,3.143,0,0,1,1.04-.92,4.529,4.529,0,0,1,1.4-.49,8.224,8.224,0,0,1,1.47-.14,6.726,6.726,0,0,1,1.53.17,4.158,4.158,0,0,1,1.32.55,3.23,3.23,0,0,1,.98.99,3.427,3.427,0,0,1,.49,1.47H83.06a1.419,1.419,0,0,0-.75-1.1,3.113,3.113,0,0,0-1.35-.28,4.83,4.83,0,0,0-.57.04,2.636,2.636,0,0,0-.62.15,1.3,1.3,0,0,0-.49.32.765.765,0,0,0-.2.55.87.87,0,0,0,.29.68,2.3,2.3,0,0,0,.76.43,7.46,7.46,0,0,0,1.07.29q.6.12,1.24.26.62.14,1.22.34a3.934,3.934,0,0,1,1.07.54,2.624,2.624,0,0,1,.76.86,2.6,2.6,0,0,1,.29,1.28,2.781,2.781,0,0,1-.42,1.56,3.321,3.321,0,0,1-1.09,1.04,4.958,4.958,0,0,1-1.49.58,7.539,7.539,0,0,1-1.62.18,7.051,7.051,0,0,1-1.81-.22,4.219,4.219,0,0,1-1.44-.67,3.237,3.237,0,0,1-.96-1.12,3.563,3.563,0,0,1-.37-1.59ZM93.4,35.72h2.5V50H93.4Zm5.24,3.94h2.16v1.52l.04.04a3.823,3.823,0,0,1,1.36-1.35,3.624,3.624,0,0,1,1.86-.49,3.865,3.865,0,0,1,2.68.88,3.368,3.368,0,0,1,.98,2.64V50h-2.28V43.5a2.809,2.809,0,0,0-.52-1.77,1.889,1.889,0,0,0-1.5-.55,2.477,2.477,0,0,0-1.04.21,2.255,2.255,0,0,0-.78.58,2.726,2.726,0,0,0-.5.87,3.105,3.105,0,0,0-.18,1.06V50H98.64Zm18.46,3.46a2.139,2.139,0,0,0-.77-1.45,2.512,2.512,0,0,0-1.59-.49,3.278,3.278,0,0,0-.94.15,2.23,2.23,0,0,0-.92.56,3.139,3.139,0,0,0-.7,1.14,5.427,5.427,0,0,0-.28,1.91,5.593,5.593,0,0,0,.15,1.28,3.5,3.5,0,0,0,.48,1.14,2.6,2.6,0,0,0,.85.81,2.418,2.418,0,0,0,1.26.31,2.294,2.294,0,0,0,1.65-.62,2.882,2.882,0,0,0,.81-1.74h2.28a5.008,5.008,0,0,1-1.53,3.09,4.668,4.668,0,0,1-3.21,1.07,5.286,5.286,0,0,1-2.15-.41,4.557,4.557,0,0,1-1.57-1.12,4.756,4.756,0,0,1-.97-1.69,6.6,6.6,0,0,1-.33-2.12,7.243,7.243,0,0,1,.32-2.18,4.993,4.993,0,0,1,.96-1.77,4.492,4.492,0,0,1,1.59-1.18,5.366,5.366,0,0,1,2.23-.43,6.232,6.232,0,0,1,1.71.23,4.5,4.5,0,0,1,1.44.69,3.673,3.673,0,0,1,1.03,1.16,3.972,3.972,0,0,1,.48,1.66Z" transform="translate(114.558 24.982)" fill="#033c52"/>
  <path id="Trazado_23" data-name="Trazado 23" d="M1053.17,69.85V153.7" transform="translate(-950.209 -69.85)" fill="none" stroke="#033c52" stroke-width="2.5"/>
</svg>
