<svg xmlns="http://www.w3.org/2000/svg" width="39.513" height="39.513" viewBox="0 0 39.513 39.513">
  <g id="Grupo_202" data-name="Grupo 202" transform="translate(1714 254)">
    <g id="Grupo_189" data-name="Grupo 189" transform="translate(-1240.174 -1100.46)">
      <g id="Grupo_21" data-name="Grupo 21" transform="translate(-473.826 846.46)">
        <ellipse id="Elipse_15" data-name="Elipse 15" cx="19.756" cy="19.756" rx="19.756" ry="19.756" transform="translate(0 0)" fill="#fff" opacity="0.5"/>
      </g>
      <path id="Icon_awesome-suitcase" data-name="Icon awesome-suitcase" d="M6.394,24.628H19.181V4.648a2.4,2.4,0,0,0-2.4-2.4H8.791a2.4,2.4,0,0,0-2.4,2.4Zm3.2-19.181h6.394v1.6H9.591Zm15.984,4V22.231a2.4,2.4,0,0,1-2.4,2.4h-2.4V7.045h2.4A2.4,2.4,0,0,1,25.575,9.443ZM4.8,24.628H2.4a2.4,2.4,0,0,1-2.4-2.4V9.443a2.4,2.4,0,0,1,2.4-2.4H4.8Z" transform="translate(-466.7 852.937)" fill="#fff"/>
    </g>
  </g>
</svg>
