<svg xmlns="http://www.w3.org/2000/svg" width="39.513" height="39.513" viewBox="0 0 39.513 39.513">
  <g id="Grupo_201" data-name="Grupo 201" transform="translate(1768 254)">
    <g id="Grupo_187" data-name="Grupo 187" transform="translate(-1294.174 -1013.46)">
      <g id="Grupo_20" data-name="Grupo 20" transform="translate(-473.826 759.46)">
        <ellipse id="Elipse_15" data-name="Elipse 15" cx="19.756" cy="19.756" rx="19.756" ry="19.756" transform="translate(0 0)" fill="#fff" opacity="0.5"/>
      </g>
      <path id="Icon_awesome-bus" data-name="Icon awesome-bus" d="M23.435,6.147h-.384V3.842C23.051,1.69,18.287,0,12.294,0S1.537,1.69,1.537,3.842V6.147H1.153A1.153,1.153,0,0,0,0,7.3v3.842a1.153,1.153,0,0,0,1.153,1.153h.384v7.684a1.537,1.537,0,0,0,1.537,1.537v1.537A1.537,1.537,0,0,0,4.61,24.588H6.147a1.537,1.537,0,0,0,1.537-1.537V21.514H16.9v1.537a1.537,1.537,0,0,0,1.537,1.537h1.537a1.537,1.537,0,0,0,1.537-1.537V21.514h.307a1.212,1.212,0,0,0,1.229-1.229V12.294h.384a1.153,1.153,0,0,0,1.153-1.153V7.3A1.153,1.153,0,0,0,23.435,6.147ZM5.379,19.209a1.537,1.537,0,1,1,1.537-1.537A1.537,1.537,0,0,1,5.379,19.209Zm.768-5.379A1.537,1.537,0,0,1,4.61,12.294V6.147A1.537,1.537,0,0,1,6.147,4.61H18.441a1.537,1.537,0,0,1,1.537,1.537v6.147a1.537,1.537,0,0,1-1.537,1.537Zm13.062,5.379a1.537,1.537,0,1,1,1.537-1.537A1.537,1.537,0,0,1,19.209,19.209Z" transform="translate(-466.7 766.362)" fill="#fff"/>
    </g>
  </g>
</svg>
